<svg width="240" height="210" xmlns="http://www.w3.org/2000/svg" version="1.1">
  <script type="text/ecmascript">
    function Onhover(evt, elementId) {
    id(elementId).style.opacity="1";
    }
    function Onout(evt,elementId) {
    id(elementId).style.opacity="0.2";
    }
  </script>
  <defs>
    <style type="text/css">
      <![CDATA[
        text.home {
        font-weight:900;
        font-size:16;
        pointer-events:none;
        }
        text.scl {
        stroke:white;
        fill:white;
        pointer-events:none;
        }
        circle.scl {
        fill:black;
        fill-opacity:0.5;
        stroke:red;
        stroke-width:3;
        filter:url(#f1);
        pointer-events:none;
        }
        path.home {
        stroke:black;
        }
        path.std {
        stroke:black;
        stroke-width:1;
        filter:url(#f1);
        }
        path.std2 {
        stroke:black;
        stroke-width:1;
        filter:url(#f1);
        }
        path.std:hover {
        fill:orange;
        }
        rect.std {
        stroke:black;
        stroke-width:1;
        filter:url(#f1);
        }
        rect.std:hover {
        fill:orange;
        }
        ]]>
    </style>
    <filter id="f1" x="-1" y="-1" width="300%" height="300%">
      <feOffset result="offOut" in="SourceAlpha" dx="3" dy="3"></feOffset>
      <feGaussianBlur result="blurOut" in="offOut"
          stdDeviation="4"></feGaussianBlur>
      <feBlend in="SourceGraphic" in2="blurOut" mode="normal"></feBlend>
    </filter>
  </defs>
  <g id="JogRose">
    <g id="Jog100" fill="#c0c0c0" class="std">
      <g id="X+100" onmouseup="SendJogcommand('X100','XYfeedrate')"
          onmouseover="Onhover(evt, 'xy100')" onmouseout="Onout(evt, 'xy100')"
          transform="translate(120 120)">
        <path class="std"
            d="M67.07,-60 L83,-75.93 A112.5,112.5 0 0,1 83,75.93 L67.07,60 A90,90 0 0,0 67.07,-60"></path>
      </g>
      <g id="X-100" onmouseup="SendJogcommand('X-100','XYfeedrate')"
          onmouseover="Onhover(evt, 'xy100')" onmouseout="Onout(evt, 'xy100')"
          transform="translate(120 120)">
        <path class="std"
            d="M-67.07,-60 L-83,-75.93 A112.5,112.5 0 0,0 -83,75.93 L-67.07,60 A90,90 0 0,1 -67.07,-60 z"></path>
      </g>
    </g>
    <g id="Jog10" fill="#d0d0d0">
      <g id="X+10" onmouseup="SendJogcommand('X10','XYfeedrate')"
          onmouseover="Onhover(evt, 'xy10')" onmouseout="Onout(evt, 'xy10')"
          transform="translate(120 120)">
        <path class="std"
            d="M51.13 44.06 L67.07,60 A90,90 0 0,0 67.07,-60 L51.13,-44.06 A67.5,67.5 0 0,1 51.13,44.06 z"></path>
      </g>
      <g id="X-10" onmouseup="SendJogcommand('X-10','XYfeedrate')"
          onmouseover="Onhover(evt, 'xy10')" onmouseout="Onout(evt, 'xy10')"
          transform="translate(120 120)">
        <path class="std"
            d="M-51.13 44.06 L-67.07,60 A90,90 0 0,1 -67.07,-60 L-51.13,-44.06 A67.5,67.5 0 0,0 -51.13,44.06 z"></path>
      </g>
    </g>
    <g id="Jog1" fill="#e0e0e0">
      <g id="X+1" onmouseup="SendJogcommand('X1','XYfeedrate')"
          onmouseover="Onhover(evt, 'xy1')" onmouseout="Onout(evt, 'xy1')"
          transform="translate(120 120)">
        <path class="std"
            d="M35.16 -28.09 L51.13,-44.06 A67.5,67.05 0 0,1 51.13,44.06 L35.16,28.09 A45,45 0 0,0 35.16,-28.09 z"></path>
      </g>
      <g id="X-1" onmouseup="SendJogcommand('X-1','XYfeedrate')"
          onmouseover="Onhover(evt, 'xy1')" onmouseout="Onout(evt, 'xy1')"
          transform="translate(120 120)">
        <path class="std"
            d="M-35.16 -28.09 L-51.13,-44.06 A67.5,67.05 0 0,0 -51.13,44.06 L-35.16,28.09 A45,45 0 0,1 -35.16,-28.09 z"></path>
      </g>
    </g>
    <g id="Jog0_1" fill="#f0f0f0">
      <g id="X+0_1" onmouseup="SendJogcommand('X0.1','XYfeedrate')"
          onmouseover="Onhover(evt, 'xy01')" onmouseout="Onout(evt, 'xy01')"
          transform="translate(120 120)">
        <path class="std"
            d="M35.16 -28.09 A45,45 0 0,1 35.16,28.09 L7.07,0 z"></path>
      </g>
      <g id="X-0_1" onmouseup="SendJogcommand('X-0.1','XYfeedrate')"
          onmouseover="Onhover(evt, 'xy01')" onmouseout="Onout(evt, 'xy01')"
          transform="translate(120 120)">
        <path class="std"
            d="M-35.16 -28.09 A45,45 0 0,0 -35.16,28.09 L-7.07,0 z"></path>
      </g>
    </g>
    <g id="RoseScale">
      <g id="xy01" style="opacity:0.2">
        <circle class="scl" cx="144" cy="96" r="9.5"></circle>
        <text class="scl" x="137" y="99" font-size="10">0.1</text>
      </g>
      <g id="xy1" style="opacity:0.2">
        <circle class="scl" cx="159.5" cy="80.5" r="10.5"></circle>
        <text class="scl" x="155" y="85" font-size="14">1</text>
      </g>
      <g id="xy10" style="opacity:0.2">
        <circle class="scl" cx="175" cy="65" r="12"></circle>
        <text class="scl" x="166" y="70" font-size="15">10</text>
      </g>
      <g id="xy100" style="opacity:0.2">
        <circle class="scl" cx="195" cy="45" r="15"></circle>
        <text class="scl" x="182" y="50" font-size="15">100</text>
      </g>
    </g>
    <g id="Decoration" pointer-events="none" font-weight="900" font-size="11"
        fill-opacity=".6">
      <path class="std" d="M20,120 l17,17 v-10 h11 v-14 h-11 v-10 z"
          fill="Khaki"></path>
      <path class="std" d="M220,120 l-17,-17 v10 h-11 v14 h11 v10 z"
          fill="Khaki"></path>
      <text x="27" y="124">-X</text>
      <text x="196" y="124">+X</text>
    </g>
  </g>
</svg>


